{
  "accessors": [
    {
      "bufferView": 2,
      "componentType": 5126,
      "count": 3,
      "max": [
        3.242511034011841,
        2.6124188899993896,
        1.0
      ],
      "min": [
        3.2397921085357666,
        2.6057701110839844,
        1.0
      ],
      "type": "VEC3"
    },
    {
      "bufferView": 2,
      "byteOffset": 36,
      "componentType": 5126,
      "count": 3,
      "max": [
        0.0,
        -0.0,
        -1.0
      ],
      "min": [
        0.0,
        -0.0,
        -1.0
      ],
      "type": "VEC3"
    },
    {
      "bufferView": 1,
      "componentType": 5126,
      "count": 3,
      "max": [
        0.6858559846878052,
        0.5457630157470703
      ],
      "min": [
        0.6858019828796387,
        0.5455610156059265
      ],
      "type": "VEC2"
    },
    {
      "bufferView": 0,
      "componentType": 5125,
      "count": 3,
      "type": "SCALAR"
    },
    {
      "bufferView": 2,
      "byteOffset": 72,
      "componentType": 5126,
      "count": 65532,
      "max": [
        3.242511034011841,
        2.614089012145996,
        12.6317720413208
      ],
      "min": [
        -1.3305549621582031,
        -2.4695730209350586,
        1.0
      ],
      "type": "VEC3"
    },
    {
      "bufferView": 2,
      "byteOffset": 786456,
      "componentType": 5126,
      "count": 65532,
      "max": [
        1.0,
        0.9999996423721313,
        0.9998252987861633
      ],
      "min": [
        -0.9999997615814209,
        -0.9999998807907104,
        -0.999997615814209
      ],
      "type": "VEC3"
    },
    {
      "bufferView": 1,
      "byteOffset": 24,
      "componentType": 5126,
      "count": 65532,
      "max": [
        0.9992769956588745,
        0.8449710011482239
      ],
      "min": [
        0.0,
        0.0
      ],
      "type": "VEC2"
    },
    {
      "bufferView": 0,
      "byteOffset": 12,
      "componentType": 5125,
      "count": 311235,
      "type": "SCALAR"
    },
    {
      "bufferView": 2,
      "byteOffset": 1572840,
      "componentType": 5126,
      "count": 65532,
      "max": [
        2.601408004760742,
        1.9550349712371826,
        12.659600257873535
      ],
      "min": [
        -2.20747709274292,
        -2.262840986251831,
        1.2109910249710083
      ],
      "type": "VEC3"
    },
    {
      "bufferView": 2,
      "byteOffset": 2359224,
      "componentType": 5126,
      "count": 65532,
      "max": [
        0.9999964237213135,
        0.9999405145645142,
        0.9999996423721313
      ],
      "min": [
        -0.9999963045120239,
        -0.9999961853027344,
        -0.9999849796295166
      ],
      "type": "VEC3"
    },
    {
      "bufferView": 1,
      "byteOffset": 524280,
      "componentType": 5126,
      "count": 65532,
      "max": [
        0.9995869994163513,
        0.8449710011482239
      ],
      "min": [
        0.00024399999529123306,
        0.000783999974373728
      ],
      "type": "VEC2"
    },
    {
      "bufferView": 0,
      "byteOffset": 1244952,
      "componentType": 5125,
      "count": 291378,
      "type": "SCALAR"
    },
    {
      "bufferView": 2,
      "byteOffset": 3145608,
      "componentType": 5126,
      "count": 65532,
      "max": [
        2.567007064819336,
        1.9582940340042114,
        11.48824691772461
      ],
      "min": [
        -2.20747709274292,
        -2.462538957595825,
        1.0
      ],
      "type": "VEC3"
    },
    {
      "bufferView": 2,
      "byteOffset": 3931992,
      "componentType": 5126,
      "count": 65532,
      "max": [
        0.9999985694885254,
        0.9999996423721313,
        0.9999998807907104
      ],
      "min": [
        -0.9999997615814209,
        -0.9999961853027344,
        -0.999976396560669
      ],
      "type": "VEC3"
    },
    {
      "bufferView": 1,
      "byteOffset": 1048536,
      "componentType": 5126,
      "count": 65532,
      "max": [
        0.9991469979286194,
        0.8449710011482239
      ],
      "min": [
        0.00024399999529123306,
        0.06105000153183937
      ],
      "type": "VEC2"
    },
    {
      "bufferView": 0,
      "byteOffset": 2410464,
      "componentType": 5125,
      "count": 279594,
      "type": "SCALAR"
    },
    {
      "bufferView": 2,
      "byteOffset": 4718376,
      "componentType": 5126,
      "count": 65533,
      "max": [
        2.6210219860076904,
        1.9469490051269531,
        11.496861457824707
      ],
      "min": [
        -1.2793539762496948,
        -2.4740939140319824,
        1.0045280456542969
      ],
      "type": "VEC3"
    },
    {
      "bufferView": 2,
      "byteOffset": 5504772,
      "componentType": 5126,
      "count": 65533,
      "max": [
        0.9999988079071045,
        0.9999997615814209,
        0.9999998807907104
      ],
      "min": [
        -0.999983549118042,
        -0.9999960660934448,
        -0.9999990463256836
      ],
      "type": "VEC3"
    },
    {
      "bufferView": 1,
      "byteOffset": 1572792,
      "componentType": 5126,
      "count": 65533,
      "max": [
        0.9996190071105957,
        0.8449710011482239
      ],
      "min": [
        0.0011840000515803695,
        0.027929000556468964
      ],
      "type": "VEC2"
    },
    {
      "bufferView": 0,
      "byteOffset": 3528840,
      "componentType": 5125,
      "count": 300570,
      "type": "SCALAR"
    },
    {
      "bufferView": 2,
      "byteOffset": 6291168,
      "componentType": 5126,
      "count": 65532,
      "max": [
        2.6252570152282715,
        2.006614923477173,
        12.275591850280762
      ],
      "min": [
        -1.5405540466308594,
        -2.4740939140319824,
        1.0019140243530273
      ],
      "type": "VEC3"
    },
    {
      "bufferView": 2,
      "byteOffset": 7077552,
      "componentType": 5126,
      "count": 65532,
      "max": [
        0.9999992847442627,
        0.9999997615814209,
        0.9999997615814209
      ],
      "min": [
        -0.9999628067016602,
        -0.9999998807907104,
        -0.9999902248382568
      ],
      "type": "VEC3"
    },
    {
      "bufferView": 1,
      "byteOffset": 2097056,
      "componentType": 5126,
      "count": 65532,
      "max": [
        0.9996079802513123,
        0.8449710011482239
      ],
      "min": [
        0.00024399999529123306,
        0.0007750000222586095
      ],
      "type": "VEC2"
    },
    {
      "bufferView": 0,
      "byteOffset": 4731120,
      "componentType": 5125,
      "count": 243570,
      "type": "SCALAR"
    },
    {
      "bufferView": 2,
      "byteOffset": 7863936,
      "componentType": 5126,
      "count": 65532,
      "max": [
        2.6238999366760254,
        1.9349000453948975,
        12.67668342590332
      ],
      "min": [
        -1.3280680179595947,
        -2.4666268825531006,
        1.0000269412994385
      ],
      "type": "VEC3"
    },
    {
      "bufferView": 2,
      "byteOffset": 8650320,
      "componentType": 5126,
      "count": 65532,
      "max": [
        0.999996542930603,
        0.9999995231628418,
        0.9999997615814209
      ],
      "min": [
        -0.9999997615814209,
        -0.9999977350234985,
        -0.9999721050262451
      ],
      "type": "VEC3"
    },
    {
      "bufferView": 1,
      "byteOffset": 2621312,
      "componentType": 5126,
      "count": 65532,
      "max": [
        0.9994620084762573,
        0.8449710011482239
      ],
      "min": [
        0.00024399999529123306,
        0.05908399820327759
      ],
      "type": "VEC2"
    },
    {
      "bufferView": 0,
      "byteOffset": 5705400,
      "componentType": 5125,
      "count": 235257,
      "type": "SCALAR"
    },
    {
      "bufferView": 2,
      "byteOffset": 9436704,
      "componentType": 5126,
      "count": 1035,
      "max": [
        1.876574993133545,
        0.7323539853096008,
        12.675975799560547
      ],
      "min": [
        -1.0436439514160156,
        -0.6055489778518677,
        4.994294166564941
      ],
      "type": "VEC3"
    },
    {
      "bufferView": 2,
      "byteOffset": 9449124,
      "componentType": 5126,
      "count": 1035,
      "max": [
        0.9999163150787354,
        0.9998825788497925,
        0.9955161809921265
      ],
      "min": [
        -0.9980074167251587,
        -0.9980449676513672,
        -0.8637130260467529
      ],
      "type": "VEC3"
    },
    {
      "bufferView": 1,
      "byteOffset": 3145568,
      "componentType": 5126,
      "count": 1035,
      "max": [
        0.9738389849662781,
        0.8449710011482239
      ],
      "min": [
        0.000666000007186085,
        0.21808700263500214
      ],
      "type": "VEC2"
    },
    {
      "bufferView": 0,
      "byteOffset": 6646428,
      "componentType": 5125,
      "count": 2667,
      "type": "SCALAR"
    },
    {
      "bufferView": 2,
      "byteOffset": 9461544,
      "componentType": 5126,
      "count": 1638,
      "max": [
        2.6243538856506348,
        1.953760027885437,
        1.0000009536743164
      ],
      "min": [
        -1.3305549621582031,
        -1.946658968925476,
        1.0
      ],
      "type": "VEC3"
    },
    {
      "bufferView": 2,
      "byteOffset": 9481200,
      "componentType": 5126,
      "count": 1638,
      "max": [
        0.3665919303894043,
        0.022298911586403847,
        -0.8014816045761108
      ],
      "min": [
        -0.5979862213134766,
        -0.10939956456422806,
        -1.0
      ],
      "type": "VEC3"
    },
    {
      "bufferView": 1,
      "byteOffset": 3153848,
      "componentType": 5126,
      "count": 1638,
      "max": [
        0.7763440012931824,
        0.6841949820518494
      ],
      "min": [
        0.6980410218238831,
        0.5655890107154846
      ],
      "type": "VEC2"
    },
    {
      "bufferView": 0,
      "byteOffset": 6657096,
      "componentType": 5125,
      "count": 2868,
      "type": "SCALAR"
    }
  ],
  "asset": {
    "extras": {
      "author": "noe-3d.at (https://sketchfab.com/www.noe-3d.at)",
      "license": "CC-BY-NC-4.0 (http://creativecommons.org/licenses/by-nc/4.0/)",
      "source": "https://sketchfab.com/3d-models/fabius-cunctator-6c6929d95a984be49105a8715bff7822",
      "title": "Fabius Cunctator"
    },
    "generator": "Sketchfab-12.51.0",
    "version": "2.0"
  },
  "bufferViews": [
    {
      "buffer": 0,
      "byteLength": 6668568,
      "name": "floatBufferViews",
      "target": 34963
    },
    {
      "buffer": 0,
      "byteLength": 3166952,
      "byteOffset": 6668568,
      "byteStride": 8,
      "name": "floatBufferViews",
      "target": 34962
    },
    {
      "buffer": 0,
      "byteLength": 9500856,
      "byteOffset": 9835520,
      "byteStride": 12,
      "name": "floatBufferViews",
      "target": 34962
    }
  ],
  "buffers": [
    {
      "byteLength": 19336376,
      "uri": "scene.bin"
    }
  ],
  "images": [
    {
      "uri": "textures/Fabius_Cunctator_O_Material_u1_v1_baseColor.png"
    }
  ],
  "materials": [
    {
      "doubleSided": true,
      "name": "Fabius_Cunctator_O_Material_u1_v1",
      "pbrMetallicRoughness": {
        "baseColorTexture": {
          "index": 0
        },
        "metallicFactor": 0.0
      }
    },
    {
      "doubleSided": true,
      "name": "bottom",
      "pbrMetallicRoughness": {
        "baseColorFactor": [
          0.5023743076202811,
          0.5023743076202811,
          0.5023743076202811,
          1.0
        ],
        "metallicFactor": 0.0
      }
    }
  ],
  "meshes": [
    {
      "name": "Object_0",
      "primitives": [
        {
          "attributes": {
            "NORMAL": 1,
            "POSITION": 0,
            "TEXCOORD_0": 2
          },
          "indices": 3,
          "material": 0,
          "mode": 4
        }
      ]
    },
    {
      "name": "Object_1",
      "primitives": [
        {
          "attributes": {
            "NORMAL": 5,
            "POSITION": 4,
            "TEXCOORD_0": 6
          },
          "indices": 7,
          "material": 0,
          "mode": 4
        }
      ]
    },
    {
      "name": "Object_2",
      "primitives": [
        {
          "attributes": {
            "NORMAL": 9,
            "POSITION": 8,
            "TEXCOORD_0": 10
          },
          "indices": 11,
          "material": 0,
          "mode": 4
        }
      ]
    },
    {
      "name": "Object_3",
      "primitives": [
        {
          "attributes": {
            "NORMAL": 13,
            "POSITION": 12,
            "TEXCOORD_0": 14
          },
          "indices": 15,
          "material": 0,
          "mode": 4
        }
      ]
    },
    {
      "name": "Object_4",
      "primitives": [
        {
          "attributes": {
            "NORMAL": 17,
            "POSITION": 16,
            "TEXCOORD_0": 18
          },
          "indices": 19,
          "material": 0,
          "mode": 4
        }
      ]
    },
    {
      "name": "Object_5",
      "primitives": [
        {
          "attributes": {
            "NORMAL": 21,
            "POSITION": 20,
            "TEXCOORD_0": 22
          },
          "indices": 23,
          "material": 0,
          "mode": 4
        }
      ]
    },
    {
      "name": "Object_6",
      "primitives": [
        {
          "attributes": {
            "NORMAL": 25,
            "POSITION": 24,
            "TEXCOORD_0": 26
          },
          "indices": 27,
          "material": 0,
          "mode": 4
        }
      ]
    },
    {
      "name": "Object_7",
      "primitives": [
        {
          "attributes": {
            "NORMAL": 29,
            "POSITION": 28,
            "TEXCOORD_0": 30
          },
          "indices": 31,
          "material": 0,
          "mode": 4
        }
      ]
    },
    {
      "name": "Object_8",
      "primitives": [
        {
          "attributes": {
            "NORMAL": 33,
            "POSITION": 32,
            "TEXCOORD_0": 34
          },
          "indices": 35,
          "material": 1,
          "mode": 4
        }
      ]
    }
  ],
  "nodes": [
    {
      "children": [
        1
      ],
      "matrix": [
        0.00322515189051803,
        3.81633589013475e-17,
        -0.1718724889273151,
        0.0,
        -0.1718724889273151,
        7.161275773532938e-19,
        -0.00322515189051803,
        0.0,
        0.0,
        0.17190274596214294,
        3.817007731269205e-17,
        0.0,
        0.5777928233146667,
        -9.964064795836572e-17,
        0.4487415850162506,
        1.0
      ],
      "name": "Sketchfab_model"
    },
    {
      "children": [
        2,
        3,
        4,
        5,
        6,
        7,
        8,
        9,
        10
      ],
      "name": "Fabius_Cunctator_C.obj.cleaner.materialmerger.gles"
    },
    {
      "mesh": 0,
      "name": "Object_2"
    },
    {
      "mesh": 1,
      "name": "Object_3"
    },
    {
      "mesh": 2,
      "name": "Object_4"
    },
    {
      "mesh": 3,
      "name": "Object_5"
    },
    {
      "mesh": 4,
      "name": "Object_6"
    },
    {
      "mesh": 5,
      "name": "Object_7"
    },
    {
      "mesh": 6,
      "name": "Object_8"
    },
    {
      "mesh": 7,
      "name": "Object_9"
    },
    {
      "mesh": 8,
      "name": "Object_10"
    }
  ],
  "samplers": [
    {
      "magFilter": 9729,
      "minFilter": 9987,
      "wrapS": 10497,
      "wrapT": 10497
    }
  ],
  "scene": 0,
  "scenes": [
    {
      "name": "Sketchfab_Scene",
      "nodes": [
        0
      ]
    }
  ],
  "textures": [
    {
      "sampler": 0,
      "source": 0
    }
  ]
}
